<svg xmlns="http://www.w3.org/2000/svg" xmlns:xlink="http://www.w3.org/1999/xlink" width="53" height="43" fill="none" xmlns:v="https://vecta.io/nano"><path d="M26 32.009a4.97 4.97 0 0 0-3.536 1.464c-.944.943-1.465 2.199-1.465 3.535s.52 2.592 1.465 3.536A4.97 4.97 0 0 0 26 42.008a4.96 4.96 0 0 0 3.534-1.464 4.97 4.97 0 0 0 1.465-3.536c0-1.336-.521-2.592-1.465-3.535S27.336 32.009 26 32.009zm2.12 7.121c-1.133 1.134-3.109 1.132-4.242 0a2.98 2.98 0 0 1 0-4.243c.567-.566 1.32-.878 2.122-.878a2.98 2.98 0 0 1 2.999 2.999 2.98 2.98 0 0 1-.879 2.122z" fill="url(#A)"/><path d="M26 22.005c-4.005 0-7.771 1.562-10.606 4.396a1 1 0 0 0 1.414 1.414c2.457-2.457 5.721-3.811 9.192-3.811a12.92 12.92 0 0 1 9.193 3.811c.195.195.451.293.707.293s.512-.098.707-.293a1 1 0 0 0 0-1.414c-2.836-2.835-6.603-4.396-10.607-4.396z" fill="url(#B)"/><path d="M26 12.002c-6.674 0-12.953 2.602-17.678 7.328a1 1 0 0 0 1.414 1.414A22.85 22.85 0 0 1 26 14.002c6.14 0 11.915 2.394 16.263 6.742.195.195.451.293.707.293s.512-.098.707-.293a1 1 0 0 0 0-1.414C38.952 14.604 32.674 12.002 26 12.002z" fill="url(#C)"/><path d="M35.708 5.455c.537.162 1.089-.135 1.25-.663a1 1 0 0 0-.662-1.25C23.87-.272 10.443 3.066 1.251 12.258a1 1 0 0 0 0 1.414c.195.195.451.293.707.293s.512-.098.707-.293c8.667-8.666 21.328-11.817 33.043-8.217z" fill="url(#D)"/><path d="M46 0a7.01 7.01 0 0 0-7 7 7.01 7.01 0 0 0 7 7 7.01 7.01 0 0 0 7-7 7.01 7.01 0 0 0-7-7zm0 12c-2.757 0-5-2.243-5-5s2.243-5 5-5 5 2.243 5 5-2.243 5-5 5z" fill="url(#E)"/><path d="M48.707 4.293a1 1 0 0 0-1.414 0L46 5.586l-1.293-1.293a1 1 0 0 0-1.414 1.414L44.586 7l-1.293 1.293a1 1 0 0 0 0 1.414c.195.195.451.293.707.293s.512-.098.707-.293L46 8.414l1.293 1.293c.195.195.451.293.707.293s.512-.098.707-.293a1 1 0 0 0 0-1.414L47.414 7l1.293-1.293a1 1 0 0 0 0-1.414z" fill="url(#F)"/><defs><linearGradient id="A" x1="25.999" y1="32.009" x2="25.999" y2="42.008" xlink:href="#G"><stop stop-color="#52ffa8"/><stop offset="1" stop-color="#52ffa8" stop-opacity=".79"/></linearGradient><linearGradient id="B" x1="26.001" y1="22.005" x2="26.001" y2="28.108" xlink:href="#G"><stop stop-color="#52ffa8"/><stop offset="1" stop-color="#52ffa8" stop-opacity=".79"/></linearGradient><linearGradient id="C" x1="26" y1="12.002" x2="26" y2="21.037" xlink:href="#G"><stop stop-color="#52ffa8"/><stop offset="1" stop-color="#52ffa8" stop-opacity=".79"/></linearGradient><linearGradient id="D" x1="18.98" y1="1.991" x2="18.98" y2="13.965" xlink:href="#G"><stop stop-color="#52ffa8"/><stop offset="1" stop-color="#52ffa8" stop-opacity=".79"/></linearGradient><linearGradient id="E" x1="46" y1="0" x2="46" y2="14" xlink:href="#G"><stop stop-color="#52ffa8"/><stop offset="1" stop-color="#52ffa8" stop-opacity=".79"/></linearGradient><linearGradient id="F" x1="46" y1="4" x2="46" y2="10" xlink:href="#G"><stop stop-color="#52ffa8"/><stop offset="1" stop-color="#52ffa8" stop-opacity=".79"/></linearGradient><linearGradient id="G" gradientUnits="userSpaceOnUse"/></defs></svg>